<svg viewBox="0 0 1280 720" xmlns:xlink="http://www.w3.org/1999/xlink" xmlns="http://www.w3.org/2000/svg" version="1.1" width="1280" height="720">
<path d="M0 0 C41.58 0 83.16 0 126 0 C131.74301775 14.93184614 131.74301775 14.93184614 133.83203125 21.30078125 C134.0699791 22.01731873 134.30792694 22.7338562 134.55308533 23.47210693 C135.30922192 25.75125813 136.06104407 28.03180176 136.8125 30.3125 C137.33795879 31.90104544 137.86367763 33.48950488 138.38964844 35.07788086 C139.17865907 37.46071482 139.96744979 39.84361841 140.75497437 42.22694397 C142.3385842 47.01677135 143.94030784 51.79989919 145.55859375 56.578125 C145.93330811 57.68760498 146.30802246 58.79708496 146.6940918 59.94018555 C147.38102003 61.97142837 148.07111943 64.00160245 148.76489258 66.03051758 C149.06419678 66.91892334 149.36350098 67.8073291 149.671875 68.72265625 C149.9306543 69.48328369 150.18943359 70.24391113 150.45605469 71.02758789 C151 73 151 73 151 76 C156.94 76 162.88 76 169 76 C169.25394531 74.05738281 169.50789062 72.11476563 169.76953125 70.11328125 C170.02730615 68.18345294 170.2851294 66.25363082 170.54418945 64.32397461 C170.80523803 62.36694168 171.05993691 60.40906506 171.31445312 58.45117188 C172.43136354 50.16917578 173.96316903 42.10526543 176 34 C181.39329866 33.83277475 186.78673751 33.67217632 192.18041992 33.51782227 C194.0167375 33.46432466 195.85300247 33.40898954 197.68920898 33.35180664 C200.32263847 33.27011136 202.95618405 33.19494262 205.58984375 33.12109375 C206.41588608 33.09405869 207.24192841 33.06702362 208.09300232 33.03916931 C210.0613581 32.98716989 212.03099331 32.98812163 214 33 C214.33 33.33 214.66 33.66 215 34 C214.56711326 38.79862693 213.49199753 42.75625544 211.5859375 47.1640625 C211.07933594 48.3509668 210.57273437 49.53787109 210.05078125 50.76074219 C209.77830566 51.38895874 209.50583008 52.01717529 209.22509766 52.66442871 C207.74465567 56.07875651 206.29175952 59.50480714 204.8359375 62.9296875 C204.52734802 63.65385864 204.21875854 64.37802979 203.90081787 65.12414551 C199.81684811 74.73653386 195.9363309 84.43239935 192.04705811 94.12481689 C188.89493568 101.97860591 185.69988365 109.77172421 182.13964844 117.45166016 C180.10757825 121.99552233 178.3883238 126.65942709 176.625 131.3125 C173.22412385 140.1642428 169.50001651 148.65109477 165 157 C161.39625537 157.14500644 157.79325758 157.23396763 154.1875 157.3125 C152.65125977 157.3753418 152.65125977 157.3753418 151.08398438 157.43945312 C150.10107422 157.45556641 149.11816406 157.47167969 148.10546875 157.48828125 C147.19949951 157.51446533 146.29353027 157.54064941 145.36010742 157.56762695 C143 157 143 157 141.39160156 155.09082031 C139.47738341 150.83924105 138.04142817 146.49880192 136.62890625 142.05859375 C136.31041718 141.07522537 135.9919281 140.09185699 135.66378784 139.07868958 C134.98009842 136.96556277 134.29919966 134.85153142 133.62081909 132.73669434 C132.19458097 128.29055255 130.75509534 123.84873918 129.31611633 119.40670776 C128.58863101 117.16076941 127.86181619 114.91461376 127.13566589 112.66824341 C123.9578996 102.84363164 120.71451517 93.04188975 117.4375 83.25 C116.94741491 81.78402143 116.45734307 80.31803844 115.96728516 78.85205078 C115.05833093 76.13403787 114.14860835 73.41628386 113.23828125 70.69873047 C111.46604628 65.40508698 109.70152089 60.10888509 107.9375 54.8125 C107.42582826 53.27732808 106.91411329 51.74217057 106.40234375 50.20703125 C104.93489583 45.8046875 103.46744792 41.40234375 102 37 C81.54 37 61.08 37 40 37 C40 44.26 40 51.52 40 59 C61.78 59.495 61.78 59.495 84 60 C85.65 63.96 87.3 67.92 89 72 C89.75023437 73.7840625 90.50046875 75.568125 91.2734375 77.40625 C91.97473157 79.10384744 92.67526239 80.80176041 93.375 82.5 C93.92607422 83.799375 93.92607422 83.799375 94.48828125 85.125 C94.82988281 85.9603125 95.17148437 86.795625 95.5234375 87.65625 C95.83200684 88.39681641 96.14057617 89.13738281 96.45849609 89.90039062 C97 92 97 92 96 96 C77.52 96 59.04 96 40 96 C40 104.58 40 113.16 40 122 C40.66 121.67 41.32 121.34 42 121 C43.95504766 120.9035543 45.91342501 120.87203691 47.87084961 120.87060547 C49.10230209 120.86745331 50.33375458 120.86430115 51.6025238 120.86105347 C52.95246415 120.86284351 54.30240417 120.86489452 55.65234375 120.8671875 C57.03235389 120.86651406 58.41236392 120.86554369 59.79237366 120.86428833 C62.68670784 120.86281277 65.58101119 120.86496105 68.4753418 120.86962891 C72.18553344 120.87532079 75.89565266 120.87204975 79.60584164 120.86605644 C82.4565536 120.86244247 85.30724841 120.86359336 88.15796089 120.86618423 C89.52590506 120.86685146 90.89385079 120.86603219 92.26179314 120.86370468 C94.17444707 120.86116511 96.08710647 120.86572214 97.99975586 120.87060547 C99.08848495 120.87140106 100.17721405 120.87219666 101.29893494 120.87301636 C104 121 104 121 107 122 C107.0246519 126.82380802 107.04283693 131.64757967 107.05493164 136.47143555 C107.05997174 138.11369464 107.06680378 139.75594923 107.07543945 141.39819336 C107.08751926 143.75375479 107.09323139 146.10925709 107.09765625 148.46484375 C107.10281754 149.20339096 107.10797882 149.94193817 107.11329651 150.7028656 C107.1134925 152.46898088 107.06194719 154.23497146 107 156 C105.46138346 157.53861654 104.05112042 157.12905102 101.90699768 157.13371277 C100.5840419 157.14011024 100.5840419 157.14011024 99.23435974 157.14663696 C98.25926956 157.14618378 97.28417938 157.14573059 96.27954102 157.14526367 C95.25848267 157.14862228 94.23742432 157.1519809 93.1854248 157.15544128 C89.7915731 157.1649832 86.39777055 157.166896 83.00390625 157.16796875 C80.65600056 157.17117902 78.30809508 157.17454291 75.96018982 157.17805481 C71.03131649 157.18405416 66.10246071 157.18589388 61.17358398 157.18530273 C54.84345998 157.18520105 48.51344799 157.19885599 42.18335056 157.21607494 C37.33220396 157.22716814 32.48108467 157.22922277 27.62992668 157.22869301 C25.29543611 157.22987708 22.96094492 157.23432255 20.62646675 157.24202538 C17.3675148 157.25177154 14.10880904 157.24896857 10.84985352 157.24291992 C9.87678757 157.24853943 8.90372162 157.25415894 7.90116882 157.25994873 C6.57398331 157.253657 6.57398331 157.253657 5.21998596 157.24723816 C4.44882226 157.24778293 3.67765856 157.24832769 2.88312626 157.24888897 C1 157 1 157 -1 155 C-1.24888897 152.37003326 -1.24888897 152.37003326 -1.24723816 148.96447754 C-1.25143265 147.67725296 -1.25562714 146.39002838 -1.25994873 145.063797 C-1.25446481 143.62911912 -1.24878182 142.194442 -1.24291992 140.75976562 C-1.24399236 139.25534482 -1.24593046 137.75092442 -1.24867249 136.24650574 C-1.25353019 132.15360462 -1.24585364 128.0608121 -1.23571944 123.96792412 C-1.22695377 119.69138583 -1.2286961 115.4148511 -1.2290802 111.13830566 C-1.22814287 103.95562923 -1.21944968 96.77299498 -1.20581055 89.59033203 C-1.1900843 81.27766244 -1.18481241 72.96503906 -1.1855461 64.65235567 C-1.18615582 56.6668054 -1.18105552 48.68127023 -1.17275429 40.69572449 C-1.16921731 37.29225039 -1.16739045 33.88878163 -1.16686058 30.48530579 C-1.16585825 26.47986971 -1.15977065 22.47447266 -1.14969444 18.46904945 C-1.14676612 16.99601289 -1.14554474 15.52297184 -1.14612198 14.04993248 C-1.14661043 12.04512493 -1.1403553 10.04031906 -1.13371277 8.03552246 C-1.13203692 6.91168907 -1.13036108 5.78785568 -1.12863445 4.62996674 C-1 2 -1 2 0 0 Z " fill="#FFFFFF" transform="translate(471,268)"/>
<path d="M0 0 C1.5950461 -0.0415663 3.18970968 -0.1028485 4.78320312 -0.18457031 C17.94444678 -0.84851905 17.94444678 -0.84851905 22.24560547 2.59863281 C24.08101818 5.18973027 25.44301 7.74944835 26.78271484 10.62475586 C27.66666936 12.07411845 28.56684737 13.51375875 29.48583984 14.94116211 C30.33747867 16.35491544 31.18638672 17.77031695 32.03271484 19.18725586 C37.05576529 27.50263019 42.29107176 35.66336972 47.59716797 43.80004883 C49.17639395 46.23067795 50.73155519 48.67613954 52.28271484 51.12475586 C55.3253605 55.92571684 58.41153821 60.69791646 61.50146484 65.46850586 C62.01032227 66.25451172 62.51917969 67.04051758 63.04345703 67.8503418 C64.28968672 69.77526935 65.53611083 71.70007071 66.78271484 73.62475586 C66.79302231 72.72495499 66.80332977 71.82515411 66.81394958 70.89808655 C66.91174826 62.436548 67.01423705 53.97508226 67.1220541 45.5136652 C67.17732269 41.1631078 67.23074884 36.81254374 67.2800293 32.46191406 C67.32761498 28.26679376 67.37995542 24.07175774 67.43565559 19.87673759 C67.45610551 18.27271041 67.47481414 16.66866009 67.49178886 15.06459236 C67.51577482 12.82552817 67.54583679 10.5866247 67.57739258 8.34765625 C67.59293686 7.0708046 67.60848114 5.79395294 67.62449646 4.47840881 C67.78271484 1.62475586 67.78271484 1.62475586 68.78271484 0.62475586 C71.57096832 0.52369764 74.33392358 0.48505746 77.12255859 0.49194336 C77.95985001 0.49098663 78.79714142 0.49002991 79.6598053 0.48904419 C81.43441849 0.48836231 83.20903415 0.49021714 84.98364258 0.49438477 C87.70513505 0.49972626 90.42646197 0.49444351 93.14794922 0.48803711 C94.86865271 0.48869802 96.5893561 0.48997945 98.31005859 0.49194336 C99.12780258 0.48991913 99.94554657 0.4878949 100.78807068 0.48580933 C106.5528047 0.50980079 106.5528047 0.50980079 108.78271484 1.62475586 C108.8293837 21.66931038 108.86467855 41.71385392 108.88633919 61.75845146 C108.89666279 71.06497893 108.91074377 80.37147268 108.93359375 89.67797852 C108.95349452 97.78715382 108.96642339 105.89630473 108.97089183 114.00550377 C108.97350485 118.30140778 108.97966893 122.59724195 108.99417496 126.89312363 C109.0077066 130.93301461 109.01194649 134.97280671 109.00893021 139.0127182 C109.00948236 140.49866141 109.01348606 141.98460779 109.02112579 143.47053146 C109.03101745 145.492934 109.02750588 147.51538909 109.02322388 149.53781128 C109.02506746 150.67161665 109.02691105 151.80542202 109.0288105 152.97358513 C108.78271484 155.62475586 108.78271484 155.62475586 106.78271484 157.62475586 C102.02971084 158.19114445 97.27347897 158.25210866 92.48999023 158.32495117 C90.90182691 158.35798057 89.31395564 158.41245349 87.72729492 158.48901367 C74.64297255 159.11669 74.64297255 159.11669 70.34619141 155.6706543 C68.51104619 153.07565214 67.14299219 150.49418156 65.78271484 147.62475586 C64.80544163 146.06508994 63.80853846 144.51751734 62.79052734 142.98413086 C61.82722449 141.44915441 60.86632797 139.91266547 59.90771484 138.37475586 C58.85869406 136.70259321 57.80921181 135.03071997 56.75927734 133.35913086 C56.25170898 132.55024414 55.74414062 131.74135742 55.22119141 130.90795898 C53.26284854 127.79960487 51.27522443 124.71133434 49.28271484 121.62475586 C45.21734162 115.31973157 41.20628643 108.98135533 37.20654297 102.63452148 C34.51235339 98.35983871 31.80931371 94.09100162 29.09570312 89.82861328 C28.47301544 88.85043137 27.85032776 87.87224945 27.20877075 86.86442566 C26.7381723 86.12533463 26.26757385 85.38624359 25.78271484 84.62475586 C25.77240738 85.52455673 25.76209991 86.4243576 25.7514801 87.35142517 C25.65368143 95.81296372 25.55119264 104.27442946 25.44337559 112.73584652 C25.388107 117.08640392 25.33468085 121.43696798 25.28540039 125.78759766 C25.2378147 129.98271796 25.18547427 134.17775398 25.12977409 138.37277412 C25.10932418 139.97680131 25.09061555 141.58085163 25.07364082 143.18491936 C25.04965487 145.42398355 25.0195929 147.66288702 24.98803711 149.90185547 C24.97249283 151.17870712 24.95694855 152.45555878 24.94093323 153.77110291 C24.78271484 156.62475586 24.78271484 156.62475586 23.78271484 157.62475586 C20.98277887 157.72578841 18.20802841 157.76445674 15.40771484 157.75756836 C14.56805176 157.75852509 13.72838867 157.75948181 12.86328125 157.76046753 C11.0844719 157.76114933 9.30566007 157.75929502 7.52685547 157.75512695 C4.79437708 157.74977869 2.06206308 157.75507191 -0.67041016 157.76147461 C-2.39436885 157.76081383 -4.11832745 157.75953267 -5.84228516 157.75756836 C-6.66519043 157.75959259 -7.4880957 157.76161682 -8.3359375 157.76370239 C-14.10233461 157.7397064 -14.10233461 157.7397064 -15.21728516 156.62475586 C-15.31620244 154.62744753 -15.3436079 152.62658723 -15.3442688 150.62683105 C-15.34708862 149.32270767 -15.34990845 148.01858429 -15.35281372 146.67494202 C-15.35086912 145.21615587 -15.34882093 143.75736986 -15.34667969 142.29858398 C-15.34803367 140.7729844 -15.34981358 139.24738514 -15.35198975 137.7217865 C-15.3565645 133.5669443 -15.35477435 129.41212682 -15.35161066 125.25728416 C-15.34908727 120.91887722 -15.35142454 116.58047246 -15.35299683 112.24206543 C-15.35481859 104.95507424 -15.35241205 97.66809317 -15.34765625 90.38110352 C-15.34221362 81.94403729 -15.34397627 73.50699523 -15.34948266 65.0699296 C-15.35401361 57.83937831 -15.35466442 50.60883432 -15.35204399 43.37828207 C-15.35048111 39.05394691 -15.35028773 34.72962313 -15.35358047 30.4052887 C-15.35645893 26.34077887 -15.35448398 22.27630033 -15.34868622 18.2117939 C-15.34735848 16.71576044 -15.34775297 15.21972437 -15.34994888 13.72369194 C-15.35265982 11.69002244 -15.34866607 9.65634722 -15.3442688 7.62268066 C-15.34389177 6.48187798 -15.34351475 5.34107529 -15.3431263 4.16570282 C-15.04411448 -1.87185495 -4.80280299 0.09782577 0 0 Z " fill="#FFFFFF" transform="translate(831.21728515625,267.375244140625)"/>
<path d="M0 0 C-0.42313447 4.93656877 -2.41996759 6.71434691 -6 10 C-7.30022773 11.31183081 -8.59399616 12.63008128 -9.8828125 13.953125 C-11.29677317 15.38551719 -12.71083789 16.81780668 -14.125 18.25 C-14.84042969 18.9821875 -15.55585938 19.714375 -16.29296875 20.46875 C-16.98261719 21.16484375 -17.67226563 21.8609375 -18.3828125 22.578125 C-19.00559082 23.21137695 -19.62836914 23.84462891 -20.27001953 24.49707031 C-22 26 -22 26 -25 27 C-27.234375 25.85546875 -27.234375 25.85546875 -29.75 24.1875 C-36.60515184 19.6497344 -43.03090264 18.6540071 -51.0625 18.6875 C-51.83916016 18.67138672 -52.61582031 18.65527344 -53.41601562 18.63867188 C-58.35840034 18.63448696 -61.70973094 19.29751934 -66 22 C-69.04390753 25.1261753 -70.77938105 27.58762106 -71 32 C-69.93611434 36.06210887 -68.51071074 37.78711589 -65 40 C-62.19164455 40.91094857 -62.19164455 40.91094857 -59 41.5 C-57.7625 41.75007813 -56.525 42.00015625 -55.25 42.2578125 C-51.37470428 42.96693268 -47.48306606 43.49682333 -43.5793457 44.02246094 C-28.39086022 46.09838834 -14.86756222 49.39751755 -4.6875 61.75 C3.66629715 73.70057092 4.46928682 89.30409003 2.5390625 103.35546875 C-0.27457858 116.14926024 -7.38362888 125.34395151 -18.0625 132.625 C-37.17468684 144.29156124 -60.48866473 145.54223414 -82 141 C-83.50240234 140.70802734 -83.50240234 140.70802734 -85.03515625 140.41015625 C-97.31709253 137.73190176 -108.09783412 131.90216588 -117 123 C-116.83934388 118.2129575 -114.49215727 115.96556727 -111.23046875 112.6640625 C-110.7530574 112.18045258 -110.27564606 111.69684265 -109.7837677 111.19857788 C-108.77581046 110.18354023 -107.76272124 109.17357608 -106.74487305 108.16845703 C-105.18703962 106.62454373 -103.6547674 105.05805542 -102.12304688 103.48828125 C-101.13947239 102.50375604 -100.15449274 101.5206322 -99.16796875 100.5390625 C-97.82641724 99.19642334 -97.82641724 99.19642334 -96.45776367 97.82666016 C-94 96 -94 96 -91.78662109 96.1484375 C-89.8487025 97.07211337 -88.18590096 98.12883949 -86.4375 99.375 C-75.80009272 106.14070389 -61.13436266 107.24784423 -48.86328125 105.4453125 C-44.73415098 104.45847634 -40.37273113 102.62153698 -38 99 C-36.98218176 94.56522051 -36.70051429 92.05818283 -37.9375 87.6875 C-41.87400755 82.55811137 -48.09229874 81.87625281 -54.1953125 81.0078125 C-56.50473426 80.709844 -58.81465333 80.4157101 -61.125 80.125 C-77.42240133 77.86098734 -92.27552376 74.50645695 -103.4375 61.3125 C-110.55366114 50.92619545 -112.42279903 36.37394369 -110.3515625 24.18359375 C-107.50908664 10.62379884 -101.47498089 0.18538341 -90 -8 C-62.50965649 -24.68245167 -24.17056131 -20.63042859 0 0 Z " fill="#FFFFFF" transform="translate(457,284)"/>
<path d="M0 0 C0.99 0.33 1.98 0.66 3 1 C3 5.95 3 10.9 3 16 C21.81 16 40.62 16 60 16 C61.37869911 21.51479644 61.1859896 26.86251928 61.18530273 32.52709961 C61.18749654 34.55929281 61.20569586 36.59094906 61.22460938 38.62304688 C61.22654297 39.90373047 61.22847656 41.18441406 61.23046875 42.50390625 C61.23457764 43.67767822 61.23868652 44.8514502 61.24291992 46.06079102 C61 49 61 49 59 52 C56.6335144 52.36076355 56.6335144 52.36076355 53.63232422 52.34057617 C52.51131317 52.34034958 51.39030212 52.34012299 50.23532104 52.33988953 C49.02071198 52.32440567 47.80610291 52.30892181 46.5546875 52.29296875 C45.31453888 52.28872391 44.07439026 52.28447906 42.79666138 52.28010559 C39.49864537 52.26613216 36.2010665 52.23917361 32.90319824 52.20599365 C29.53838556 52.17531239 26.17350703 52.16144018 22.80859375 52.14648438 C16.20537936 52.11589506 9.60325256 52.05718019 3 52 C3.495 64.375 3.495 64.375 4 77 C6.89241455 76.98428955 6.89241455 76.98428955 9.84326172 76.96826172 C16.20551692 76.93604611 22.56775285 76.9130462 28.93006706 76.89637566 C32.78854797 76.88592657 36.64694085 76.871747 40.50537109 76.84912109 C44.22712192 76.8274326 47.94878794 76.81543986 51.67059708 76.81024551 C53.09241191 76.80654255 54.51422197 76.79931181 55.93600082 76.78853989 C57.92327114 76.77407881 59.91062631 76.77318354 61.89794922 76.77294922 C63.03046112 76.768508 64.16297302 76.76406677 65.32980347 76.75949097 C68 77 68 77 70 79 C70.18721852 81.49743862 70.25579767 83.88188683 70.23046875 86.37890625 C70.23001053 87.10617416 70.22955231 87.83344208 70.2290802 88.58274841 C70.22605836 90.12020499 70.21817405 91.65765852 70.20581055 93.19506836 C70.18754573 95.55658735 70.1853009 97.91771461 70.18554688 100.27929688 C70.18063203 101.77083674 70.17480386 103.26237394 70.16796875 104.75390625 C70.16685593 105.46430557 70.1657431 106.1747049 70.16459656 106.90663147 C70.11605365 111.88394635 70.11605365 111.88394635 69 113 C67.49448826 113.09575309 65.9844897 113.12188187 64.47593689 113.12025452 C63.00981209 113.12231651 63.00981209 113.12231651 61.5140686 113.12442017 C60.43297821 113.12082489 59.35188782 113.11722961 58.23803711 113.11352539 C56.54069679 113.11374443 56.54069679 113.11374443 54.80906677 113.1139679 C51.04847329 113.11326819 47.28792863 113.10547311 43.52734375 113.09765625 C40.92802457 113.09579227 38.32870503 113.09436828 35.72938538 113.09336853 C29.57411423 113.08993341 23.4188634 113.08204256 17.26359993 113.07201904 C10.25766654 113.06085694 3.25173233 113.05534721 -3.75420773 113.05032361 C-18.16948133 113.03985992 -32.58474004 113.02226108 -47 113 C-48.14380293 109.14091945 -47.66774211 107.51364382 -45.96484375 103.828125 C-45.25666504 102.26880249 -45.25666504 102.26880249 -44.53417969 100.67797852 C-44.00727539 99.54674561 -43.48037109 98.4155127 -42.9375 97.25 C-42.10459577 95.4211408 -41.27173647 93.59226023 -40.44088745 91.76246643 C-39.85692317 90.47752498 -39.27154602 89.1932248 -38.68484497 87.90953064 C-35.74976728 81.48318337 -32.92335163 75.01121752 -30.10671997 68.5322876 C-23.9840826 54.45499796 -17.76168709 40.42264388 -11.50488281 26.40454102 C-7.59380671 17.63451304 -3.75420388 8.83845857 0 0 Z " fill="#FFFFFF" transform="translate(727,312)"/>
<path d="M0 0 C1.31806641 -0.00315216 2.63613281 -0.00630432 3.99414062 -0.009552 C5.44401075 -0.00776222 6.89388058 -0.00571127 8.34375 -0.00341797 C9.81966162 -0.00409104 11.29557313 -0.0050611 12.77148438 -0.00631714 C15.86850029 -0.00779395 18.96548742 -0.00564011 22.0625 -0.00097656 C26.04083549 0.00472073 30.01910352 0.00144163 33.99743652 -0.00454903 C37.04622917 -0.0081551 40.09500571 -0.00701584 43.14379883 -0.00442123 C44.61108406 -0.00375209 46.07837074 -0.00457994 47.5456543 -0.00690079 C49.59293593 -0.00942804 51.64022266 -0.00489607 53.6875 0 C55.43836914 0.00119339 55.43836914 0.00119339 57.22460938 0.00241089 C59.84375 0.12939453 59.84375 0.12939453 60.84375 1.12939453 C60.94462212 3.63863607 60.98347032 6.11975837 60.9765625 8.62939453 C60.97751923 9.38027344 60.97847595 10.13115234 60.97946167 10.90478516 C60.98014338 12.4952808 60.97828972 14.08577921 60.97412109 15.67626953 C60.96877267 18.11904108 60.97406634 20.56162874 60.98046875 23.00439453 C60.97980797 24.54606161 60.9785268 26.08772857 60.9765625 27.62939453 C60.97858673 28.36480469 60.98061096 29.10021484 60.98269653 29.85791016 C60.95870161 35.01444292 60.95870161 35.01444292 59.84375 36.12939453 C57.79362154 36.22879079 55.74003608 36.25739006 53.6875 36.25878906 C52.36943359 36.26194122 51.05136719 36.26509338 49.69335938 36.26834106 C48.24348925 36.26655129 46.79361942 36.26450033 45.34375 36.26220703 C43.86783838 36.26288011 42.39192687 36.26385016 40.91601562 36.2651062 C37.81899971 36.26658301 34.72201258 36.26442917 31.625 36.25976562 C27.64666451 36.25406834 23.66839648 36.25734743 19.69006348 36.26333809 C16.64127083 36.26694417 13.59249429 36.2658049 10.54370117 36.2632103 C9.07641594 36.26254116 7.60912926 36.263369 6.1418457 36.26568985 C4.09456407 36.2682171 2.04727734 36.26368513 0 36.25878906 C-1.75086914 36.25759567 -1.75086914 36.25759567 -3.53710938 36.25637817 C-6.15625 36.12939453 -6.15625 36.12939453 -7.15625 35.12939453 C-7.25712212 32.620153 -7.29597032 30.13903069 -7.2890625 27.62939453 C-7.29001923 26.87851562 -7.29097595 26.12763672 -7.29196167 25.35400391 C-7.29264338 23.76350826 -7.29078972 22.17300986 -7.28662109 20.58251953 C-7.28127267 18.13974799 -7.28656634 15.69716032 -7.29296875 13.25439453 C-7.29230797 11.71272746 -7.2910268 10.1710605 -7.2890625 8.62939453 C-7.29108673 7.89398438 -7.29311096 7.15857422 -7.29519653 6.40087891 C-7.26418104 -0.26438056 -6.4933815 0.00442588 0 0 Z " fill="#FFFFFF" transform="translate(736.15625,267.87060546875)"/>
<path d="M0 0 C4.3625175 2.27077045 6.85263976 4.94705774 8.99609375 9.31640625 C10.60472678 15.3959297 10.19779747 19.76678647 6.99609375 25.31640625 C3.77521867 29.03280058 0.83437852 31.91904638 -4.15234375 32.6171875 C-9.19470056 32.64372622 -12.71235021 32.24246719 -17.00390625 29.31640625 C-21.14189182 25.11113636 -23.16297597 21.97750986 -23.31640625 16.06640625 C-23.26318404 10.97703256 -22.50192349 8.19258751 -19.00390625 4.31640625 C-13.49053415 -0.65907589 -7.21659273 -2.46180064 0 0 Z M-14.00390625 7.31640625 C-14.58140625 7.70828125 -15.15890625 8.10015625 -15.75390625 8.50390625 C-17.81490742 11.49235794 -18.1287109 14.77334098 -18.00390625 18.31640625 C-16.88472685 21.1550043 -16.88472685 21.1550043 -15.00390625 23.31640625 C-14.38515625 24.18265625 -14.38515625 24.18265625 -13.75390625 25.06640625 C-10.90820369 27.09905094 -8.45390184 27.19945725 -5.00390625 27.31640625 C-1.44042828 26.08289464 0.45903728 24.96087402 2.87109375 22.06640625 C4.32627252 18.50930259 4.46498057 16.13448467 3.99609375 12.31640625 C2.2124429 8.8151657 0.9544315 6.84349201 -2.50390625 4.94140625 C-7.44375314 3.70644453 -9.95417721 4.51274769 -14.00390625 7.31640625 Z " fill="#FFFFFF" transform="translate(861.00390625,440.68359375)"/>
<path d="M0 0 C17.87704918 0 17.87704918 0 22.48828125 4.4296875 C26.76261587 9.26991994 27.35365279 13.2785039 27.28125 19.49609375 C26.73007103 24.40311766 23.98968624 27.08454022 20.5 30.3125 C14.05836454 34.66060394 8.16998246 33 0 33 C0 22.11 0 11.22 0 0 Z M5 6 C5 12.93 5 19.86 5 27 C14.22761232 27.81589126 14.22761232 27.81589126 18.5625 25 C21.54155928 21.3334655 22.41862902 18.69054791 22 14 C20.26196076 9.88359127 18.70068523 8.77551392 15 6 C11.7 6 8.4 6 5 6 Z " fill="#FFFFFF" transform="translate(671,440)"/>
<path d="M0 0 C3.23018203 1.73293027 5.55065287 3.81243974 6.875 7.3125 C6.91625 7.869375 6.9575 8.42625 7 9 C1.48160535 9.37625418 1.48160535 9.37625418 -1 7.4375 C-3.03325361 5.64311568 -3.03325361 5.64311568 -6.25 6.3125 C-7.1575 6.539375 -8.065 6.76625 -9 7 C-9.33 8.32 -9.66 9.64 -10 11 C-7.15779032 12.56321533 -4.68963251 13.33975345 -1.5 13.875 C1.37272319 14.49971081 3.04333833 15.02748284 5.5625 16.625 C7.63889495 20.05556556 7.85211642 23.1654761 7 27 C4.98303232 30.05798325 3.4537301 31.56252234 -0.08984375 32.62890625 C-5.58682109 33.52157778 -9.1883253 32.7495284 -14 30 C-16 27 -16 27 -16 23 C-14.35 23 -12.7 23 -11 23 C-10.67 23.99 -10.34 24.98 -10 26 C-5.98195309 26.84098656 -2.98196457 27.05404945 1 26 C1 24.35 1 22.7 1 21 C-0.33804687 20.76216797 -0.33804687 20.76216797 -1.703125 20.51953125 C-2.87359375 20.28621094 -4.0440625 20.05289062 -5.25 19.8125 C-6.41015625 19.59207031 -7.5703125 19.37164062 -8.765625 19.14453125 C-12.60081605 17.78739239 -13.87920626 16.42510757 -16 13 C-16.5625 9.5 -16.5625 9.5 -16 6 C-11.62298322 0.55830346 -6.93038986 -1.17685866 0 0 Z " fill="#FFFFFF" transform="translate(427,440)"/>
<path d="M0 0 C1.65 0 3.3 0 5 0 C5.01981934 0.65073486 5.03963867 1.30146973 5.06005859 1.97192383 C5.15529299 4.91919151 5.26497818 7.86574885 5.375 10.8125 C5.4059375 11.83666016 5.436875 12.86082031 5.46875 13.91601562 C5.50742187 14.89892578 5.54609375 15.88183594 5.5859375 16.89453125 C5.6173584 17.80050049 5.6487793 18.70646973 5.68115234 19.63989258 C5.86027919 22.26525392 5.86027919 22.26525392 8 25 C11.95119101 26.28146735 13.7078291 25.85843418 18 25 C18.33 16.75 18.66 8.5 19 0 C20.65 0 22.3 0 24 0 C24.14541967 4.22880411 24.23411527 8.45696413 24.3125 12.6875 C24.35439453 13.88568359 24.39628906 15.08386719 24.43945312 16.31835938 C24.57760557 26.23770496 24.57760557 26.23770496 21.66796875 29.26953125 C17.35672592 32.06584248 14.07416632 32.34401128 9 32 C4.79888781 30.38418762 2.30712044 28.86709363 0 25 C-0.34057617 22.25097656 -0.34057617 22.25097656 -0.29296875 19.140625 C-0.28330078 18.02558594 -0.27363281 16.91054688 -0.26367188 15.76171875 C-0.23853516 14.60285156 -0.21339844 13.44398438 -0.1875 12.25 C-0.17396484 11.07566406 -0.16042969 9.90132813 -0.14648438 8.69140625 C-0.1111478 5.79380702 -0.06180979 2.89713573 0 0 Z " fill="#FFFFFF" transform="translate(582,441)"/>
<path d="M0 0 C5.61 0 11.22 0 17 0 C17 1.65 17 3.3 17 5 C15.02 5 13.04 5 11 5 C11 11.93 11 18.86 11 26 C12.98 26 14.96 26 17 26 C17 27.98 17 29.96 17 32 C11.39 32 5.78 32 0 32 C0 30.02 0 28.04 0 26 C1.98 26 3.96 26 6 26 C6 19.07 6 12.14 6 5 C4.02 5 2.04 5 0 5 C0 3.35 0 1.7 0 0 Z " fill="#FFFFFF" transform="translate(759,441)"/>
<path d="M0 0 C7.92 0 15.84 0 24 0 C24 1.98 24 3.96 24 6 C21.03 6 18.06 6 15 6 C15 14.91 15 23.82 15 33 C13.35 33 11.7 33 10 33 C10 24.09 10 15.18 10 6 C6.7 6 3.4 6 0 6 C0 4.02 0 2.04 0 0 Z " fill="#FFFFFF" transform="translate(494,440)"/>
<path d="M0 0 C7.75 0.75 7.75 0.75 10 3 C6.7 2.34 3.4 1.68 0 1 C0 0.67 0 0.34 0 0 Z " fill="#FFFFFF" transform="translate(826,438)"/>
<path d="M0 0 C3 1 3 1 3 1 Z " fill="#FFFFFF" transform="translate(451,439)"/>
<path d="M0 0 C3 1 3 1 3 1 Z " fill="#FFFFFF" transform="translate(454,438)"/>
</svg>